<svg width="775" height="76" viewBox="0 0 775 76" fill="none" xmlns="http://www.w3.org/2000/svg">
<path d="M19.2614 58.5966C16.4489 58.5966 13.9418 58.1136 11.7401 57.1477C9.55256 56.1818 7.8125 54.8395 6.51989 53.1207C5.24148 51.3878 4.54545 49.3778 4.43182 47.0909H9.80114C9.91477 48.4972 10.3977 49.7116 11.25 50.7344C12.1023 51.7429 13.2173 52.5241 14.5952 53.0781C15.973 53.6321 17.5 53.9091 19.1761 53.9091C21.0511 53.9091 22.7131 53.5824 24.1619 52.929C25.6108 52.2756 26.7472 51.3665 27.571 50.2017C28.3949 49.0369 28.8068 47.6875 28.8068 46.1534C28.8068 44.5483 28.4091 43.1349 27.6136 41.9134C26.8182 40.6776 25.6534 39.7116 24.1193 39.0156C22.5852 38.3196 20.7102 37.9716 18.4943 37.9716H15V33.2841H18.4943C20.2273 33.2841 21.7472 32.9716 23.054 32.3466C24.375 31.7216 25.4048 30.8409 26.1435 29.7045C26.8963 28.5682 27.2727 27.233 27.2727 25.6989C27.2727 24.2216 26.946 22.9361 26.2926 21.8423C25.6392 20.7486 24.7159 19.8963 23.5227 19.2855C22.3438 18.6747 20.9517 18.3693 19.3466 18.3693C17.8409 18.3693 16.4205 18.6463 15.0852 19.2003C13.7642 19.7401 12.6847 20.5284 11.8466 21.5653C11.0085 22.5881 10.554 23.8239 10.483 25.2727H5.36932C5.45455 22.9858 6.14347 20.983 7.43608 19.2642C8.72869 17.5312 10.419 16.1818 12.5071 15.2159C14.6094 14.25 16.9176 13.767 19.4318 13.767C22.1307 13.767 24.446 14.3139 26.3778 15.4077C28.3097 16.4872 29.794 17.9148 30.831 19.6903C31.8679 21.4659 32.3864 23.3835 32.3864 25.4432C32.3864 27.9006 31.7401 29.9957 30.4474 31.7287C29.169 33.4616 27.429 34.6619 25.2273 35.3295V35.6705C27.983 36.125 30.1349 37.2969 31.6832 39.1861C33.2315 41.0611 34.0057 43.3835 34.0057 46.1534C34.0057 48.5256 33.3594 50.6562 32.0668 52.5455C30.7884 54.4205 29.0412 55.8977 26.8253 56.9773C24.6094 58.0568 22.0881 58.5966 19.2614 58.5966ZM52.4361 58.767C50.3622 58.767 48.4801 58.3764 46.7898 57.5952C45.0994 56.7997 43.7571 55.6562 42.7628 54.1648C41.7685 52.6591 41.2713 50.8409 41.2713 48.7102C41.2713 46.8352 41.6406 45.3153 42.3793 44.1506C43.1179 42.9716 44.1051 42.0483 45.3409 41.3807C46.5767 40.7131 47.9403 40.2159 49.4318 39.8892C50.9375 39.5483 52.4503 39.2784 53.9702 39.0795C55.9588 38.8239 57.571 38.6321 58.8068 38.5043C60.0568 38.3622 60.9659 38.1278 61.5341 37.8011C62.1165 37.4744 62.4077 36.9062 62.4077 36.0966V35.9261C62.4077 33.8239 61.8324 32.1903 60.6818 31.0256C59.5455 29.8608 57.8196 29.2784 55.5043 29.2784C53.1037 29.2784 51.2216 29.804 49.858 30.8551C48.4943 31.9062 47.5355 33.0284 46.9815 34.2216L42.2088 32.517C43.0611 30.5284 44.1974 28.9801 45.6179 27.8722C47.0526 26.75 48.6151 25.9687 50.3054 25.5284C52.0099 25.0739 53.6861 24.8466 55.3338 24.8466C56.3849 24.8466 57.5923 24.9744 58.956 25.2301C60.3338 25.4716 61.6619 25.9759 62.9403 26.7429C64.233 27.5099 65.3054 28.6676 66.1577 30.2159C67.0099 31.7642 67.4361 33.8381 67.4361 36.4375V58H62.4077V53.5682H62.152C61.8111 54.2784 61.2429 55.0384 60.4474 55.848C59.652 56.6577 58.5938 57.3466 57.2727 57.9148C55.9517 58.483 54.3395 58.767 52.4361 58.767ZM53.2031 54.25C55.1918 54.25 56.8679 53.8594 58.2315 53.0781C59.6094 52.2969 60.6463 51.2884 61.3423 50.0526C62.0526 48.8168 62.4077 47.517 62.4077 46.1534V41.5511C62.1946 41.8068 61.7259 42.0412 61.0014 42.2543C60.2912 42.4531 59.4673 42.6307 58.5298 42.7869C57.6065 42.929 56.7045 43.0568 55.8239 43.1705C54.9574 43.2699 54.2543 43.3551 53.7145 43.4261C52.4077 43.5966 51.1861 43.8736 50.0497 44.2571C48.9276 44.6264 48.0185 45.1875 47.3224 45.9403C46.6406 46.679 46.2997 47.6875 46.2997 48.9659C46.2997 50.7131 46.946 52.0341 48.2386 52.929C49.5455 53.8097 51.2003 54.25 53.2031 54.25ZM76.614 58V25.2727H102.353V58H97.3242V29.9602H81.6424V58H76.614ZM116.564 50.5852L132.331 25.2727H138.127V58H133.098V32.6875L117.417 58H111.536V25.2727H116.564V50.5852ZM160.632 58.6818C157.564 58.6818 154.922 57.9574 152.706 56.5085C150.49 55.0597 148.786 53.0639 147.592 50.5213C146.399 47.9787 145.803 45.0739 145.803 41.8068C145.803 38.483 146.413 35.5497 147.635 33.0071C148.871 30.4503 150.589 28.4545 152.791 27.0199C155.007 25.571 157.592 24.8466 160.547 24.8466C162.848 24.8466 164.922 25.2727 166.768 26.125C168.615 26.9773 170.128 28.1705 171.307 29.7045C172.486 31.2386 173.217 33.0284 173.501 35.0739H168.473C168.089 33.5824 167.237 32.2614 165.916 31.1108C164.609 29.946 162.848 29.3636 160.632 29.3636C158.672 29.3636 156.953 29.875 155.476 30.8977C154.013 31.9062 152.869 33.3338 152.045 35.1804C151.236 37.0128 150.831 39.1648 150.831 41.6364C150.831 44.1648 151.229 46.3665 152.024 48.2415C152.834 50.1165 153.97 51.5724 155.433 52.6094C156.911 53.6463 158.643 54.1648 160.632 54.1648C161.939 54.1648 163.125 53.9375 164.19 53.483C165.256 53.0284 166.158 52.375 166.896 51.5227C167.635 50.6705 168.161 49.6477 168.473 48.4545H173.501C173.217 50.3864 172.514 52.1264 171.392 53.6747C170.284 55.2088 168.814 56.4304 166.982 57.3395C165.163 58.2344 163.047 58.6818 160.632 58.6818ZM180.852 58V25.2727H185.881V39.5057H189.205L200.966 25.2727H207.443L194.233 41.0398L207.614 58H201.136L190.398 44.1932H185.881V58H180.852ZM218.107 50.5852L233.874 25.2727H239.67V58H234.641V32.6875L218.96 58H213.079V25.2727H218.107V50.5852ZM346.55 58.6818C343.482 58.6818 340.84 57.9574 338.624 56.5085C336.408 55.0597 334.703 53.0639 333.51 50.5213C332.317 47.9787 331.721 45.0739 331.721 41.8068C331.721 38.483 332.331 35.5497 333.553 33.0071C334.789 30.4503 336.507 28.4545 338.709 27.0199C340.925 25.571 343.51 24.8466 346.465 24.8466C348.766 24.8466 350.84 25.2727 352.686 26.125C354.533 26.9773 356.046 28.1705 357.225 29.7045C358.404 31.2386 359.135 33.0284 359.419 35.0739H354.391C354.007 33.5824 353.155 32.2614 351.834 31.1108C350.527 29.946 348.766 29.3636 346.55 29.3636C344.59 29.3636 342.871 29.875 341.394 30.8977C339.931 31.9062 338.787 33.3338 337.963 35.1804C337.154 37.0128 336.749 39.1648 336.749 41.6364C336.749 44.1648 337.147 46.3665 337.942 48.2415C338.752 50.1165 339.888 51.5724 341.351 52.6094C342.828 53.6463 344.561 54.1648 346.55 54.1648C347.857 54.1648 349.043 53.9375 350.108 53.483C351.174 53.0284 352.076 52.375 352.814 51.5227C353.553 50.6705 354.078 49.6477 354.391 48.4545H359.419C359.135 50.3864 358.432 52.1264 357.31 53.6747C356.202 55.2088 354.732 56.4304 352.9 57.3395C351.081 58.2344 348.965 58.6818 346.55 58.6818ZM370.009 70.2727C369.157 70.2727 368.397 70.2017 367.729 70.0597C367.061 69.9318 366.6 69.804 366.344 69.6761L367.623 65.2443C368.844 65.5568 369.924 65.6705 370.861 65.5852C371.799 65.5 372.63 65.081 373.354 64.3281C374.093 63.5895 374.767 62.3892 375.378 60.7273L376.316 58.1705L364.213 25.2727H369.668L378.702 51.3523H379.043L388.077 25.2727H393.532L379.64 62.7727C379.015 64.4631 378.24 65.8622 377.317 66.9702C376.394 68.0923 375.321 68.9233 374.1 69.4631C372.892 70.0028 371.529 70.2727 370.009 70.2727ZM418.066 51.1818L429.487 25.2727H434.26L420.112 58H416.021L402.129 25.2727H406.816L418.066 51.1818ZM405.197 25.2727V58H400.169V25.2727H405.197ZM430.936 58V25.2727H435.964V58H430.936ZM454.799 58.767C452.725 58.767 450.843 58.3764 449.153 57.5952C447.463 56.7997 446.12 55.6562 445.126 54.1648C444.132 52.6591 443.635 50.8409 443.635 48.7102C443.635 46.8352 444.004 45.3153 444.743 44.1506C445.481 42.9716 446.468 42.0483 447.704 41.3807C448.94 40.7131 450.304 40.2159 451.795 39.8892C453.301 39.5483 454.814 39.2784 456.333 39.0795C458.322 38.8239 459.934 38.6321 461.17 38.5043C462.42 38.3622 463.329 38.1278 463.897 37.8011C464.48 37.4744 464.771 36.9062 464.771 36.0966V35.9261C464.771 33.8239 464.196 32.1903 463.045 31.0256C461.909 29.8608 460.183 29.2784 457.868 29.2784C455.467 29.2784 453.585 29.804 452.221 30.8551C450.858 31.9062 449.899 33.0284 449.345 34.2216L444.572 32.517C445.424 30.5284 446.561 28.9801 447.981 27.8722C449.416 26.75 450.978 25.9687 452.669 25.5284C454.373 25.0739 456.049 24.8466 457.697 24.8466C458.748 24.8466 459.956 24.9744 461.319 25.2301C462.697 25.4716 464.025 25.9759 465.304 26.7429C466.596 27.5099 467.669 28.6676 468.521 30.2159C469.373 31.7642 469.799 33.8381 469.799 36.4375V58H464.771V53.5682H464.515C464.174 54.2784 463.606 55.0384 462.811 55.848C462.015 56.6577 460.957 57.3466 459.636 57.9148C458.315 58.483 456.703 58.767 454.799 58.767ZM455.566 54.25C457.555 54.25 459.231 53.8594 460.595 53.0781C461.973 52.2969 463.01 51.2884 463.706 50.0526C464.416 48.8168 464.771 47.517 464.771 46.1534V41.5511C464.558 41.8068 464.089 42.0412 463.365 42.2543C462.654 42.4531 461.831 42.6307 460.893 42.7869C459.97 42.929 459.068 43.0568 458.187 43.1705C457.321 43.2699 456.618 43.3551 456.078 43.4261C454.771 43.5966 453.549 43.8736 452.413 44.2571C451.291 44.6264 450.382 45.1875 449.686 45.9403C449.004 46.679 448.663 47.6875 448.663 48.9659C448.663 50.7131 449.309 52.0341 450.602 52.929C451.909 53.8097 453.564 54.25 455.566 54.25ZM492.273 58.6818C489.205 58.6818 486.563 57.9574 484.347 56.5085C482.131 55.0597 480.426 53.0639 479.233 50.5213C478.04 47.9787 477.443 45.0739 477.443 41.8068C477.443 38.483 478.054 35.5497 479.276 33.0071C480.511 30.4503 482.23 28.4545 484.432 27.0199C486.648 25.571 489.233 24.8466 492.188 24.8466C494.489 24.8466 496.562 25.2727 498.409 26.125C500.256 26.9773 501.768 28.1705 502.947 29.7045C504.126 31.2386 504.858 33.0284 505.142 35.0739H500.114C499.73 33.5824 498.878 32.2614 497.557 31.1108C496.25 29.946 494.489 29.3636 492.273 29.3636C490.313 29.3636 488.594 29.875 487.116 30.8977C485.653 31.9062 484.51 33.3338 483.686 35.1804C482.876 37.0128 482.472 39.1648 482.472 41.6364C482.472 44.1648 482.869 46.3665 483.665 48.2415C484.474 50.1165 485.611 51.5724 487.074 52.6094C488.551 53.6463 490.284 54.1648 492.273 54.1648C493.58 54.1648 494.766 53.9375 495.831 53.483C496.896 53.0284 497.798 52.375 498.537 51.5227C499.276 50.6705 499.801 49.6477 500.114 48.4545H505.142C504.858 50.3864 504.155 52.1264 503.033 53.6747C501.925 55.2088 500.455 56.4304 498.622 57.3395C496.804 58.2344 494.688 58.6818 492.273 58.6818ZM512.493 25.2727H517.521V53.3125H529.879V25.2727H534.908V53.3125H547.266V25.2727H552.294V58H512.493V25.2727ZM575.199 58.6818C572.045 58.6818 569.325 57.9858 567.038 56.5938C564.766 55.1875 563.011 53.2273 561.776 50.7131C560.554 48.1847 559.943 45.2443 559.943 41.892C559.943 38.5398 560.554 35.5852 561.776 33.0284C563.011 30.4574 564.73 28.4545 566.932 27.0199C569.148 25.571 571.733 24.8466 574.688 24.8466C576.392 24.8466 578.075 25.1307 579.737 25.6989C581.399 26.267 582.912 27.1903 584.276 28.4688C585.639 29.733 586.726 31.4091 587.536 33.4972C588.345 35.5852 588.75 38.1562 588.75 41.2102V43.3409H563.523V38.9943H583.636C583.636 37.1477 583.267 35.5 582.528 34.0511C581.804 32.6023 580.767 31.4588 579.418 30.6207C578.082 29.7827 576.506 29.3636 574.688 29.3636C572.685 29.3636 570.952 29.8608 569.489 30.8551C568.04 31.8352 566.925 33.1136 566.143 34.6903C565.362 36.267 564.972 37.9574 564.972 39.7614V42.6591C564.972 45.1307 565.398 47.2259 566.25 48.9446C567.116 50.6491 568.317 51.9489 569.851 52.8438C571.385 53.7244 573.168 54.1648 575.199 54.1648C576.52 54.1648 577.713 53.9801 578.778 53.6108C579.858 53.2273 580.788 52.6591 581.57 51.9062C582.351 51.1392 582.955 50.1875 583.381 49.0511L588.239 50.4148C587.727 52.0625 586.868 53.5114 585.661 54.7614C584.453 55.9972 582.962 56.9631 581.186 57.6591C579.411 58.3409 577.415 58.6818 575.199 58.6818ZM592.905 67.375V53.3125H595.632C596.3 52.6165 596.875 51.8636 597.358 51.054C597.841 50.2443 598.26 49.2855 598.615 48.1776C598.984 47.0554 599.297 45.6918 599.553 44.0866C599.808 42.4673 600.036 40.5142 600.234 38.2273L601.342 25.2727H622.138V53.3125H627.166V67.375H622.138V58H597.933V67.375H592.905ZM601.342 53.3125H617.109V29.9602H606.03L605.178 38.2273C604.822 41.6506 604.382 44.6406 603.857 47.1974C603.331 49.7543 602.493 51.7926 601.342 53.3125ZM633.841 25.2727H638.869V53.3125H651.227V25.2727H656.255V53.3125H668.613V25.2727H673.642V58H633.841V25.2727ZM696.547 58.6818C693.393 58.6818 690.673 57.9858 688.386 56.5938C686.113 55.1875 684.359 53.2273 683.123 50.7131C681.902 48.1847 681.291 45.2443 681.291 41.892C681.291 38.5398 681.902 35.5852 683.123 33.0284C684.359 30.4574 686.078 28.4545 688.279 27.0199C690.495 25.571 693.081 24.8466 696.035 24.8466C697.74 24.8466 699.423 25.1307 701.085 25.6989C702.747 26.267 704.26 27.1903 705.623 28.4688C706.987 29.733 708.074 31.4091 708.883 33.4972C709.693 35.5852 710.098 38.1562 710.098 41.2102V43.3409H684.87V38.9943H704.984C704.984 37.1477 704.615 35.5 703.876 34.0511C703.152 32.6023 702.115 31.4588 700.765 30.6207C699.43 29.7827 697.853 29.3636 696.035 29.3636C694.032 29.3636 692.299 29.8608 690.836 30.8551C689.387 31.8352 688.272 33.1136 687.491 34.6903C686.71 36.267 686.319 37.9574 686.319 39.7614V42.6591C686.319 45.1307 686.745 47.2259 687.598 48.9446C688.464 50.6491 689.664 51.9489 691.199 52.8438C692.733 53.7244 694.515 54.1648 696.547 54.1648C697.868 54.1648 699.061 53.9801 700.126 53.6108C701.206 53.2273 702.136 52.6591 702.917 51.9062C703.699 51.1392 704.302 50.1875 704.728 49.0511L709.586 50.4148C709.075 52.0625 708.216 53.5114 707.008 54.7614C705.801 55.9972 704.309 56.9631 702.534 57.6591C700.758 58.3409 698.762 58.6818 696.547 58.6818ZM737.946 25.2727V29.9602H722.775V58H717.747V25.2727H737.946ZM756.882 58.6818C753.928 58.6818 751.335 57.9787 749.105 56.5724C746.889 55.1662 745.156 53.1989 743.906 50.6705C742.67 48.142 742.053 45.1875 742.053 41.8068C742.053 38.3977 742.67 35.4219 743.906 32.8793C745.156 30.3366 746.889 28.3622 749.105 26.956C751.335 25.5497 753.928 24.8466 756.882 24.8466C759.837 24.8466 762.422 25.5497 764.638 26.956C766.868 28.3622 768.601 30.3366 769.837 32.8793C771.087 35.4219 771.712 38.3977 771.712 41.8068C771.712 45.1875 771.087 48.142 769.837 50.6705C768.601 53.1989 766.868 55.1662 764.638 56.5724C762.422 57.9787 759.837 58.6818 756.882 58.6818ZM756.882 54.1648C759.126 54.1648 760.973 53.5895 762.422 52.4389C763.871 51.2884 764.943 49.7756 765.639 47.9006C766.335 46.0256 766.683 43.9943 766.683 41.8068C766.683 39.6193 766.335 37.581 765.639 35.6918C764.943 33.8026 763.871 32.2756 762.422 31.1108C760.973 29.946 759.126 29.3636 756.882 29.3636C754.638 29.3636 752.791 29.946 751.342 31.1108C749.893 32.2756 748.821 33.8026 748.125 35.6918C747.429 37.581 747.081 39.6193 747.081 41.8068C747.081 43.9943 747.429 46.0256 748.125 47.9006C748.821 49.7756 749.893 51.2884 751.342 52.4389C752.791 53.5895 754.638 54.1648 756.882 54.1648Z" fill="#343434"/>
<path d="M290.096 5H267.978C266.392 5 264.872 5.71643 263.751 6.99167C262.63 8.26692 262 9.99653 262 11.8V66.2C262 68.0035 262.63 69.7331 263.751 71.0083C264.872 72.2836 266.392 73 267.978 73H303.845C305.431 73 306.951 72.2836 308.072 71.0083C309.193 69.7331 309.823 68.0035 309.823 66.2V41.04M267.978 18.6H279.934M267.978 32.2H279.934M267.978 45.8H279.934M267.978 59.4H279.934M316.997 7.04C318.242 6.1252 319.726 5.72368 321.201 5.90233C322.675 6.08098 324.052 6.82902 325.1 8.0218C326.149 9.21459 326.806 10.7801 326.964 12.4574C327.121 14.1348 326.768 15.8227 325.963 17.24L309.823 35.6L297.867 39L300.856 25.4L316.997 7.04Z" stroke="#E4CCB2" stroke-width="5" stroke-linecap="round" stroke-linejoin="round"/>
</svg>
